<svg width="120mm" height="120mm" version="1.1" viewBox="0 0 120 120" xmlns="http://www.w3.org/2000/svg">
 <g transform="translate(-27.502 -156.01)">
  <path transform="matrix(.26458 0 0 .26458 27.502 156.01)" d="m249.85 5.6953-69.002 0.0078125-41.924 241.76-86.982 0.50586-11.307 74.727 68.996 0.1543 12.207 74.021 69.113 0.0332 4.1894-24.182a133.82 133.82 0 0 1-10.164-50.982 133.82 133.82 0 0 1 34.521-89.625l8.8457-51.057 50.832-0.24414-29.326-175.12z" fill="#33333f"/>
  <path d="m138.68 241.13a26.829 26.829 0 0 1-26.829 26.829 26.829 26.829 0 0 1-26.829-26.829 26.829 26.829 0 0 1 26.829-26.829 26.829 26.829 0 0 1 26.829 26.829z" color="#000000" fill="#ff2424" style="-inkscape-stroke:none;paint-order:stroke fill markers"/>
 </g>
</svg>