<?xml version="1.0" standalone="no"?>
<!DOCTYPE svg PUBLIC "-//W3C//DTD SVG 1.1//EN" "http://www.w3.org/Graphics/SVG/1.1/DTD/svg11.dtd" >
<svg xmlns="http://www.w3.org/2000/svg">
<metadata>Generated by IcoMoon</metadata>
<defs>
<font id="icomoon" horiz-adv-x="1024">
<font-face units-per-em="1024" ascent="960" descent="-64" />
<missing-glyph horiz-adv-x="1024" />
<glyph unicode="&#x20;" horiz-adv-x="512" d="" />
<glyph unicode="&#xe000;" glyph-name="grace" d="M554 384.667v256h-84v-256h84zM554 212.667v86h-84v-86h84zM512 852.667c236 0 426-190 426-426s-190-426-426-426-426 190-426 426 190 426 426 426z" />
<glyph unicode="&#xe001;" glyph-name="missing" d="M512 84.667c188 0 342 154 342 342s-154 342-342 342-342-154-342-342 154-342 342-342zM512 852.667c236 0 426-190 426-426s-190-426-426-426-426 190-426 426 190 426 426 426zM470 640.667h84v-256h-84v256zM470 298.667h84v-86h-84v86z" />
<glyph unicode="&#xe038;" glyph-name="started" d="M426 234.667l256 192-256 192v-384zM512 852.667c236 0 426-190 426-426s-190-426-426-426-426 190-426 426 190 426 426 426z" />
<glyph unicode="&#xe313;" glyph-name="desc" d="M316 604.667l196-196 196 196 60-60-256-256-256 256z" />
<glyph unicode="&#xe316;" glyph-name="asc" d="M316 280.667l-60 60 256 256 256-256-60-60-196 196z" />
<glyph unicode="&#xe425;" glyph-name="timer" d="M512 84.667c166 0 298 134 298 300s-132 298-298 298-298-132-298-298 132-300 298-300zM812 622.667c52-66 84-148 84-238 0-212-172-384-384-384s-384 172-384 384 172 384 384 384c90 0 174-34 240-86l60 62c22-18 42-38 60-60zM470 340.667v256h84v-256h-84zM640 896.667v-86h-256v86h256z" />
<glyph unicode="&#xe5c9;" glyph-name="cancel" d="M726 272.667l-154 154 154 154-60 60-154-154-154 154-60-60 154-154-154-154 60-60 154 154 154-154zM512 852.667c236 0 426-190 426-426s-190-426-426-426-426 190-426 426 190 426 426 426z" />
<glyph unicode="&#xe5d3;" glyph-name="dots" d="M512 512.667c46 0 86-40 86-86s-40-86-86-86-86 40-86 86 40 86 86 86zM768 512.667c46 0 86-40 86-86s-40-86-86-86-86 40-86 86 40 86 86 86zM256 512.667c46 0 86-40 86-86s-40-86-86-86-86 40-86 86 40 86 86 86z" />
<glyph unicode="&#xe7f6;" glyph-name="paused" d="M768 312.667l-382 402c10 4 20 10 30 14h2l12 6c6 2 12 2 18 4v30c0 36 28 64 64 64s64-28 64-64v-30c122-30 192-138 192-270v-156zM512 0.667c-48 0-86 36-86 84h172c0-48-38-84-86-84zM334 676.667c187.235-193.432 375.34-385.994 562-580l-54-54-86 86h-586v42l86 86v214c0 54 12 104 34 146l-120 118 54 56z" />
<glyph unicode="&#xe7f7;" glyph-name="down" d="M512 0.667c-48 0-86 38-86 84h170c0-49.675-37.225-84-84-84zM768 468.667v-212l86-86v-42h-684v42l86 86v212c0 132 70 240 192 270v30c0 36 28 64 64 64s64-28 64-64v-30c122-30 192-140 192-270zM852 490.667c-6 114-64 212-150 274l60 60c102-78 170-198 176-334h-86zM324 764.667c-88-62-146-160-152-274h-86c6 136 74 256 176 334z" />
<glyph unicode="&#xe86c;" glyph-name="up, new, ok" d="M426 212.667l384 384-60 62-324-324-152 152-60-60zM512 852.667c236 0 426-190 426-426s-190-426-426-426-426 190-426 426 190 426 426 426z" />
<glyph unicode="&#xe8b5;" glyph-name="schedule" d="M534 640.667v-224l192-114-32-54-224 136v256h64zM512 84.667c188 0 342 154 342 342s-154 342-342 342-342-154-342-342 154-342 342-342zM512 852.667c236 0 426-190 426-426s-190-426-426-426-426 190-426 426 190 426 426 426z" />
<glyph unicode="&#xe900;" d="M986.025 426.667c0-261.797-212.228-474.025-474.025-474.025s-474.025 212.228-474.025 474.025c0 261.797 212.228 474.025 474.025 474.025s474.025-212.228 474.025-474.025z" />
<glyph unicode="&#xe901;" glyph-name="matrix" d="M563.922 550.948q22.169 33.905 52.488 51.509 30.645 17.931 67.158 17.931 62.92 0 95.847-38.796t32.927-112.799v-222.338h-117.364v190.389q0.327 4.238 0.327 8.802 0.327 4.564 0.327 13.041 0 38.795-11.41 56.074-11.41 17.604-36.839 17.604-33.253 0-51.51-27.385-17.931-27.385-18.583-79.22v-179.305h-117.364v190.389q0 60.638-10.432 77.917-10.432 17.604-37.165 17.604-33.579 0-51.836-27.711-18.257-27.385-18.257-78.568v-179.631h-117.365v365.131h117.364v-53.466q21.517 30.971 49.227 46.62 28.037 15.649 61.616 15.649 37.817 0 66.832-18.257t44.011-51.183zM0 938.667v-1024h106.169v39.712h-66.457v944.576h66.457v39.712zM917.426 938.667v-39.712h66.457v-944.576h-66.457v-39.712h106.169v1024z" />
<glyph unicode="&#xe902;" glyph-name="hipchat" d="M842.069 125.611s4.395 3.115 11.392 8.448c104.832 81.067 170.539 198.613 170.539 329.344 0 243.84-229.248 441.685-511.872 441.685-282.709 0-512.128-197.845-512.128-441.685 0-243.925 229.163-441.856 511.915-441.856 36.139 0 72.277 3.115 107.691 9.728l11.179 1.92c71.808-46.592 176.597-84.907 268.288-84.907 28.373 0 41.728 23.296 23.552 47.104-27.648 33.92-65.749 88.235-80.555 130.219zM779.691 318.72c-30.549-45.611-125.184-123.264-266.837-123.264h-1.963c-141.995 0-236.501 78.123-266.837 123.264-5.925 6.635-10.069 14.98-11.609 24.207l-0.039 0.283c-0.040 0.482-0.062 1.044-0.062 1.611 0 10.922 8.376 19.889 19.055 20.826l0.079 0.006c0.341 0.128 0.597 0.128 0.896 0.128 4.992-0.256 9.813-1.835 13.995-4.736 66.349-54.437 152.044-87.507 245.457-87.723h0.047c1.278-0.016 2.787-0.025 4.298-0.025 92.205 0 176.651 33.217 242.026 88.338l-0.564-0.463c3.493 3.227 8.18 5.205 13.33 5.205 0.009 0 0.018 0 0.027 0h-0.001c11.392 0 20.395-9.088 20.608-20.267-1.385-10.492-5.47-19.835-11.527-27.557l0.093 0.122h-0.469z" />
<glyph unicode="&#xe903;" glyph-name="whatsapp" d="M746.581 325.035c-12.843 6.4-75.392 36.992-87.040 41.216-11.648 4.309-20.181 6.4-28.715-6.4-8.405-12.587-32.896-41.131-40.277-49.579-7.467-8.32-14.891-8.96-27.563-3.2-12.8 6.4-53.888 19.84-102.528 63.36-37.888 33.92-63.317 75.52-70.827 88.32-7.424 12.8-0.811 19.84 5.547 26.24 5.803 5.76 12.843 14.72 19.243 22.315 6.229 7.723 8.277 12.843 12.672 21.163 4.267 8.96 2.091 16-1.067 22.357-3.2 6.4-28.672 69.12-39.339 94.123-10.24 24.917-20.779 21.76-28.672 21.76-7.339 0.64-15.829 0.64-24.363 0.64s-22.315-3.157-34.005-15.317c-11.648-12.8-44.587-43.52-44.587-105.6s45.653-122.24 52.011-131.2c6.357-8.32 89.813-136.32 217.6-191.36 30.464-12.8 54.187-20.48 72.704-26.837 30.464-9.685 58.24-8.32 80.213-5.163 24.491 3.883 75.392 30.763 86.016 60.843 10.88 30.080 10.88 55.040 7.68 60.8-3.157 5.76-11.52 8.96-24.32 14.72zM514.603 10.667h-0.683c-75.52 0-150.357 20.48-215.68 58.88l-15.36 9.131-160-41.6 42.88 155.52-10.197 16c-42.24 67.243-64.683 144.683-64.683 224.427 0 232.32 190.080 421.76 424.192 421.76 113.237 0 219.52-44.16 299.563-124.16 80-79.317 124.117-185.6 124.117-298.24-0.171-232.277-190.293-421.76-423.893-421.76zM875.52 791.51c-97.28 94.037-225.28 147.157-361.6 147.157-280.832 0-509.483-227.584-509.611-507.435 0-89.429 23.424-176.64 68.053-253.653l-72.363-262.912 270.293 70.485c74.496-40.235 158.293-61.611 243.627-61.739h0.256c280.96 0 509.696 227.669 509.824 507.563 0 135.509-52.907 263.040-149.12 358.869z" />
<glyph unicode="&#xe904;" d="M106.433 706.83h831.695v-355.789h-831.695v355.789z" />
<glyph unicode="&#xe905;" d="M163.435 762.875h693.396v-691.861h-693.396z" />
<glyph unicode="&#xe906;" glyph-name="telegram" d="M385.195 49.622c-30.464 0-25.301 11.563-35.797 40.491l-89.728 295.253 690.219 409.515zM385.195 49.622c23.552 0 33.92 10.752 47.147 23.595l125.483 121.899-156.629 94.464zM401.195 289.579l379.307-280.235c43.307-23.893 74.581-11.563 85.333 40.192l154.453 727.595c15.872 63.445-24.064 92.117-65.451 73.387l-906.837-349.739c-61.867-24.832-61.568-59.392-11.264-74.795l232.747-72.533 538.624 339.755c25.387 15.36 48.768 7.125 29.611-9.899z" />
<glyph unicode="&#xe907;" glyph-name="mattermost" d="M812.886 840.953l5.388-108.675c88.107-97.331 122.88-235.174 79.024-364.727-65.466-193.39-281.341-295.051-482.17-227.064-200.829 67.985-310.561 279.871-245.094 473.263 44.003 129.983 155.955 218.524 285.614 241.97l70.053 82.77c-218.559 5.917-424.758-129.745-498.535-347.68-90.647-267.771 52.94-558.326 320.711-648.975 267.771-90.646 558.329 52.94 648.975 320.711 73.658 217.588-7.346 450.217-183.967 578.408zM687.37 520.285l-3.711 151.926-2.976 87.421-2.013 75.737c0 0 0.422 36.521-0.854 45.102-0.268 1.806-0.838 3.275-1.511 4.559l-0.258 0.537-0.291 0.469c-1.401 2.411-3.603 4.368-6.451 5.333-2.914 0.987-5.927 0.743-8.546-0.387l-0.162-0.061c-0.311-0.141-0.608-0.299-0.907-0.463-1.241-0.604-2.503-1.387-3.738-2.585-6.226-6.042-28.077-35.308-28.077-35.308l-47.603-58.941-55.467-67.637-95.232-118.43c0 0-43.701-54.541-34.045-121.676s59.567-99.84 98.288-112.949c38.72-13.107 98.236-17.445 146.687 30.020 48.451 47.463 46.867 117.334 46.867 117.334z" />
<glyph unicode="&#xe908;" glyph-name="webhook" horiz-adv-x="1097" d="M512.168 508.059c-45.458-76.418-89.010-150.42-133.47-223.865-11.418-18.856-17.069-34.216-7.948-58.183 25.184-66.213-10.343-130.647-77.112-148.136-62.969-16.5-124.319 24.884-136.812 92.301-11.071 59.67 35.236 118.166 101.028 127.494 5.51 0.788 11.14 0.878 20.403 1.572l100.077 167.815c-62.943 62.588-100.407 135.746-92.117 226.405 5.861 64.083 31.063 119.464 77.121 164.854 88.218 86.924 222.802 100.998 326.675 34.28 99.76-64.087 145.45-188.92 106.504-295.763-29.366 7.961-58.937 15.99-91.444 24.807 12.228 59.404 3.183 112.746-36.881 158.445-26.47 30.171-60.437 45.985-99.057 51.812-77.429 11.697-153.449-38.046-176.007-114.045-25.604-86.247 13.149-156.705 119.040-209.799zM641.992 598.432c32.027-56.5 64.546-113.852 96.774-170.677 162.896 50.398 285.716-39.777 329.777-136.32 53.222-116.62 16.838-254.743-87.682-326.692-107.284-73.856-242.961-61.238-338.012 33.638 24.225 20.278 48.569 40.647 74.58 62.408 93.882-60.805 175.994-57.943 236.954 14.062 51.984 61.427 50.857 153.016-2.635 213.153-61.731 69.396-144.417 71.512-244.366 4.897-41.461 73.556-83.642 146.525-123.792 220.613-13.539 24.97-28.483 39.46-58.997 44.743-50.955 8.835-83.852 52.592-85.827 101.615-1.941 48.483 26.624 92.309 71.268 109.383 44.225 16.919 96.123 3.265 125.87-34.336 24.31-30.72 32.035-65.296 19.242-103.183-3.556-10.566-8.162-20.788-13.153-33.308zM718.539 136.564h-196.101c-18.796-77.309-59.396-139.726-129.349-179.417-54.383-30.848-112.995-41.307-175.377-31.234-114.859 18.522-208.775 121.919-217.044 238.346-9.357 131.894 81.298 249.13 202.134 275.463 8.342-30.296 16.774-60.883 25.116-91.105-110.865-56.564-149.237-127.832-118.209-216.949 27.314-78.423 104.901-121.41 189.147-104.786 86.033 16.975 129.409 88.475 124.113 203.222 81.56 0 163.188 0.844 244.756-0.416 31.851-0.501 56.44 2.802 80.433 30.883 39.503 46.204 112.215 42.035 154.76-1.602 43.479-44.597 41.397-116.354-4.614-159.070-44.392-41.217-114.524-39.015-156.058 5.398-8.535 9.152-15.261 20.021-23.706 31.268z" />
<glyph unicode="&#xe909;" d="M136.678 706.531h741.966v-570.576h-741.966v570.576z" />
<glyph unicode="&#xe90a;" d="M152.615 781.252h715.906v-710.736h-715.906v710.736z" />
<glyph unicode="&#xe90b;" d="M120.381 827.429h775.619v-807.619h-775.619v807.619z" />
<glyph unicode="&#xe90c;" d="M141.134 746.129h745.554v-536.922h-745.554v536.922z" />
<glyph unicode="&#xe90d;" d="M1002.578 426.667c0-270.873-219.586-490.459-490.459-490.459s-490.459 219.586-490.459 490.459c0 270.873 219.586 490.459 490.459 490.459s490.459-219.586 490.459-490.459z" />
<glyph unicode="&#xe90e;" d="M208.271 765.108h594.441v-702.915h-594.441v702.915z" />
<glyph unicode="&#xe90f;" d="M225.893 727.88h570.226v-614.184h-570.226v614.184z" />
<glyph unicode="&#xe910;" glyph-name="opsgenie" d="M743.936 655.659c0-126.045-102.179-228.224-228.224-228.224s-228.224 102.179-228.224 228.224c0 126.045 102.179 228.224 228.224 228.224s228.224-102.179 228.224-228.224zM331.25 475.467c-0.331 0.015-0.72 0.024-1.11 0.024-4.111 0-7.996-0.969-11.438-2.691l0.148 0.067-174.075-85.375c-7.879-4.466-13.109-12.795-13.109-22.346 0-4.573 1.199-8.866 3.3-12.582l-0.066 0.128c50.302-85.712 107.8-159.699 173.587-225.387l0.013-0.013c4.432 2.148 4.26 2.057 4.089 1.966l-4.614-2.241c0.996-0.926 2.761-2.541 4.533-4.151l0.892-0.799c15.385-14.953 31.482-29.696 48.009-43.956l1.416-1.194c9.966-9.098 20.993-18.754 32.212-28.188l1.663-1.362c12.519-9.977 27.635-21.329 43.047-32.293l3.378-2.282c14.251-10.935 31.558-23.335 49.232-35.232l3.893-2.468c0.351-0.219 0.874-0.518 1.405-0.804l0.195-0.096c0.475-0.283 1.138-0.641 1.813-0.979l0.212-0.096c0.034-0.027 0.298-0.144 0.563-0.259l0.237-0.091c0.586-0.288 1.41-0.641 2.25-0.965l0.25-0.085c0.254-0.097 0.77-0.26 1.291-0.411l0.259-0.064c0.344-0.128 0.952-0.316 1.567-0.488l0.258-0.062c0.498-0.135 1.257-0.3 2.025-0.441l0.225-0.034c0.186-0.050 0.617-0.137 1.051-0.216l0.224-0.034c0.512-0.077 1.225-0.157 1.944-0.216l0.131-0.009c0.422-0.052 1.017-0.105 1.616-0.144l0.109-0.006c0.419-0.017 0.91-0.027 1.403-0.027 0.131 0 0.261 0.001 0.392 0.002h-0.020c0.111-0.001 0.241-0.002 0.372-0.002 0.493 0 0.985 0.010 1.473 0.029l-0.070-0.002c0.708 0.045 1.303 0.098 1.894 0.166l-0.169-0.016c0.85 0.068 1.563 0.148 2.269 0.248l-0.194-0.023c0.713 0.117 1.204 0.213 1.691 0.319l-0.241-0.044c0.909 0.164 1.584 0.312 2.252 0.478l-0.252-0.053c0.889 0.231 1.515 0.42 2.134 0.624l-0.259-0.074c0.814 0.233 1.363 0.412 1.906 0.604l-0.256-0.079c0.976 0.375 1.693 0.687 2.398 1.020l-0.223-0.095c0.59 0.236 0.936 0.387 1.279 0.544l-0.229-0.094c0.887 0.434 1.55 0.792 2.2 1.169l-0.175-0.094c0.726 0.382 1.249 0.681 1.764 0.992l-0.164-0.092c21.985 14.656 39.683 27.36 56.975 40.568l-2.65-1.943c17.997 12.692 32.356 23.453 46.437 34.551l-2.337-1.776c14.845 12.377 27.703 23.651 40.29 35.217l-0.79-0.717c15.613 13.53 29.551 26.272 43.151 39.361l-0.351-0.336c3.436 3.1 5.934 5.385 8.422 7.681l-0.747-0.681c-4.756 2.366-5.001 2.5-5.247 2.633l4.497-2.233c65.678 65.668 123.078 139.613 170.501 220.136l2.799 5.139c2.038 3.591 3.24 7.888 3.24 12.465 0 9.543-5.221 17.866-12.963 22.269l-0.126 0.066-0.775 0.775-172.925 84.6c-3.266 1.622-7.112 2.57-11.18 2.57-9.373 0-17.569-5.037-22.030-12.552l-0.065-0.118c-45.938-76.109-100.155-141.393-162.711-197.578l-0.789-0.697c-63.328 56.875-117.523 122.161-161.285 194.466l-2.14 3.809c-4.331 7.346-12.045 12.293-20.944 12.698l-0.056 0.002z" />
<glyph unicode="&#xe911;" d="M78.102 851.887h863.458v-820.068h-863.458v820.068z" />
<glyph unicode="&#xe912;" glyph-name="clippy" horiz-adv-x="896" d="M704 42.667h-640v576h640v-192h64v320c0 35-29 64-64 64h-192c0 71-57 128-128 128s-128-57-128-128h-192c-35 0-64-29-64-64v-704c0-35 29-64 64-64h640c35 0 64 29 64 64v128h-64v-128zM192 746.667c29 0 29 0 64 0s64 29 64 64 29 64 64 64 64-29 64-64 32-64 64-64 33 0 64 0 64-29 64-64h-512c0 39 28 64 64 64zM128 234.667h128v64h-128v-64zM576 362.667v128l-256-192 256-192v128h320v128h-320zM128 106.667h192v64h-192v-64zM448 554.667h-320v-64h320v64zM256 426.667h-128v-64h128v64z" />
<glyph unicode="&#xe913;" glyph-name="settings" d="M512 276.667c82 0 150 68 150 150s-68 150-150 150-150-68-150-150 68-150 150-150zM830 384.667l90-70c8-6 10-18 4-28l-86-148c-6-10-16-12-26-8l-106 42c-22-16-46-32-72-42l-16-112c-2-10-10-18-20-18h-172c-10 0-18 8-20 18l-16 112c-26 10-50 24-72 42l-106-42c-10-4-20-2-26 8l-86 148c-6 10-4 22 4 28l90 70c-2 14-2 28-2 42s0 28 2 42l-90 70c-8 6-10 18-4 28l86 148c6 10 16 12 26 8l106-42c22 16 46 32 72 42l16 112c2 10 10 18 20 18h172c10 0 18-8 20-18l16-112c26-10 50-24 72-42l106 42c10 4 20 2 26-8l86-148c6-10 4-22-4-28l-90-70c2-14 2-28 2-42s0-28-2-42z" />
<glyph unicode="&#xe914;" glyph-name="pagerteam" horiz-adv-x="981" d="M484.289 600.535c-67.542-1.322-134.652-26.387-187.221-70.263-56.96-47.541-94.861-114.277-106.117-186.879-3.371-21.755-3.183-14.333-3.367-130.672-0.144-87.121-0.309-106.544-0.894-107.030-31.25-1.325-94.191-0.875-94.191-0.875s-0.436-123.022-0.285-189.922l799.764-0.228-0.323 189.561-94.818 0.856-0.228 104.062c-0.235 112.101-0.168 109.401-3.138 130.159-1.569 10.965-4.997 27.461-7.798 37.528-26.226 94.196-95.127 169.766-186.194 204.207-32.295 12.214-64.792 18.42-101.666 19.439-4.502 0.124-9.021 0.145-13.524 0.057zM504.47 525.517c51.456 0 106.155-17.857 149.103-56.434s72.159-98.866 70.871-174.553c-1.391-48.523-73.925-47.248-73.61 1.293 0.97 57.004-18.643 93.453-46.506 118.48s-65.885 37.604-99.859 37.604c-49.962-0.897-49.962 74.507 0 73.61zM38.407 673.607c-0.476 0.022-1.035 0.035-1.596 0.035-20.33 0-36.811-16.481-36.811-36.811 0-13.706 7.49-25.662 18.6-31.998l0.181-0.095 156.359-91.3c5.323-3.162 11.735-5.030 18.583-5.030 20.347 0 36.841 16.494 36.841 36.841 0 13.498-7.259 25.301-18.087 31.717l-0.171 0.094-156.431 91.3c-4.992 3.055-10.98 4.971-17.393 5.245l-0.076 0.003zM232.796 855.199c-19.71-0.785-35.391-16.953-35.391-36.784 0-6.961 1.932-13.471 5.29-19.023l-0.092 0.165 87.202-150.968c6.296-11.786 18.515-19.67 32.577-19.67 20.33 0 36.811 16.481 36.811 36.811 0 7.295-2.122 14.094-5.782 19.814l0.088-0.148-87.13 150.968c-6.42 11.337-18.401 18.863-32.139 18.863-0.504 0-1.006-0.010-1.505-0.030l0.072 0.002zM492.029 938.663c-20.081-0.324-36.236-16.679-36.236-36.807 0-0.177 0.001-0.354 0.004-0.531v0.027-187.2c-0.002-0.155-0.004-0.338-0.004-0.521 0-20.33 16.481-36.811 36.811-36.811s36.811 16.481 36.811 36.811c0 0.183-0.001 0.366-0.004 0.548v-0.028 187.2c0.002 0.15 0.003 0.327 0.003 0.504 0 20.33-16.481 36.811-36.811 36.811-0.202 0-0.404-0.002-0.605-0.005h0.030zM945.507 669.509c-0.29 0.008-0.632 0.013-0.974 0.013-7.054 0-13.644-1.984-19.243-5.424l0.16 0.091-156.431-91.3c-11.571-6.357-19.282-18.463-19.282-32.37 0-20.33 16.481-36.811 36.811-36.811 7.253 0 14.016 2.098 19.716 5.719l-0.15-0.089 156.431 91.3c11.271 6.437 18.746 18.382 18.746 32.073 0 19.969-15.9 36.224-35.731 36.795l-0.053 0.001zM747.38 851.029c-0.089 0.001-0.193 0.001-0.298 0.001-13.728 0-25.7-7.514-32.029-18.654l-0.095-0.182-87.13-150.895c-3.572-5.572-5.694-12.371-5.694-19.666 0-20.33 16.481-36.811 36.811-36.811 14.061 0 26.281 7.884 32.48 19.472l0.096 0.198 87.202 150.895c3.256 5.381 5.182 11.882 5.182 18.832 0 20.23-16.319 36.648-36.51 36.81h-0.015z" />
<glyph unicode="&#xe915;" glyph-name="apprise" horiz-adv-x="1103" d="M419.207-84.872c-36.821 10.251-62.633 68.381-78.184 96.84s-44.871 79.948-44.871 79.948l144.118 77.477c0 0 60.549-101.414 89.638-152.536 19.503-48.548-37.228-71.026-70.145-90.61-12.11-6.879-26.274-13.39-40.556-11.119zM139.125 116.164c-83.563 6.246-150.932 89.762-137.383 173.161 0.044 28.578 33.377 106.495 61.177 57.277 41.786-74.223 86.086-147.054 127.101-221.634-9.907-13.558-36.039-7.416-50.895-8.805zM256.767 156.935c-51.040 82.94-97.903 168.519-147.818 252.248 31.046 22.803 61.092 39.433 87.762 60.464 113.646 71.464 237.133 203.369 288.762 347.602 13.484 45.244 66.37 79.001 93.522 38.262 100.485-174.847 203.317-348.42 302.511-523.936 17.51-66.627-63.993-53.787-103.86-44.62-133.333 17.402-276.261 7.503-394.63-61.032-41.186-22.873-80.753-48.963-122.811-70.028l-3.438 1.038zM1008.674 467.334c-59.824 20.665 2.515 73.201 14.237 107.157 44.133 94.328 5.38 215.539-83.422 269.141-47.146 29.856-104.57 37.992-159.139 29.894-49.006 8.783-26.794 61.723 19.937 63.521 135.186 15.694 273.035-84.419 296.526-219.010 18.169-86.287-5.187-184.47-69.789-246.399-5.822-2.236-11.938-5.013-18.349-4.303zM874.499 514.786c-56.018 26.015 12.996 72.844 8.156 111.868 9.085 66.073-58.288 124.609-122.441 110.005-37.378 8.906-34.985 58.261 13.385 63.11 100.043 8.227 190.553-92.3 170.885-191.055-6.546-34.584-27.598-94.615-69.985-93.926z" />
<glyph unicode="&#xe916;" horiz-adv-x="1082" d="M106.316 611.304h343.707v-379.145h-343.707v379.145z" />
<glyph unicode="&#xe917;" d="M73.378 851.645h872.067v-843.844h-872.067v843.844z" />
<glyph unicode="&#xe918;" glyph-name="delete" d="M810 768.667v-86h-596v86h148l44 42h212l44-42h148zM256 128.667v512h512v-512c0-46-40-86-86-86h-340c-46 0-86 40-86 86z" />
<glyph unicode="&#xe919;" d="M285.044 848.823h448.733v-784.578h-448.733v784.578z" />
<glyph unicode="&#xe91a;" d="M173.631 775.761h666.131v-658.487h-666.131v658.487z" />
<glyph unicode="&#xe91b;" d="M138.066 651.017h754.759v-340.562h-754.759v340.562z" />
<glyph unicode="&#xe91c;" glyph-name="signal" d="M512.512 827.819c-222.72 0-403.285-166.4-403.285-371.584 0-128.683 52.011-226.176 134.613-289.024h-0.213l9.984-129.792v-0.171c0-0.725 0-1.323 0.171-1.963v-0.256c1.024-6.144 6.4-10.88 12.843-10.88 2.261 0 4.267 0.64 6.144 1.493l0.469 0.341 123.563 71.424c36.437-8.363 75.392-12.757 115.627-12.757 222.72 0 403.285 166.357 403.285 371.627 0 205.227-180.608 371.584-403.371 371.584l0.171-0.043zM443.307 907.947c22.4 2.773 45.269 4.437 68.48 4.437 16.213 0 32-0.853 47.744-2.219l2.432 26.197c-16.64 1.493-33.237 2.304-50.091 2.304-24.32 0-48.427-1.536-72.149-4.651l3.541-26.112 0.043 0.043zM605.312 903.936c39.040-7.040 76.16-18.603 111.36-33.92l10.752 24.192c-5.632 2.389-11.221 4.779-16.939 7.040-32.512 12.8-66.176 22.357-100.48 28.629l-4.693-25.941zM996.523 453.547c-0.64-39.040-6.613-77.056-17.28-113.28l25.173-7.467c11.392 38.528 17.749 79.104 18.389 120.789l-26.283-0.043zM287.787 861.27c34.603 16.597 71.595 29.781 110.336 38.485l-5.76 25.771c-26.923-6.016-53.376-14.037-79.061-24.277-12.672-4.992-25.003-10.453-36.992-16.256l11.477-23.723zM870.187 801.579c-30.123 27.691-63.36 51.499-99.371 71.381l-13.269-23.083c34.603-18.987 66.603-41.856 94.891-68.096l17.749 19.712v0.085zM646.443-2.176c40.32 10.24 78.72 25.216 114.603 43.947l-13.44 22.741c-33.536-17.621-69.589-31.488-107.563-41.259l6.4-25.429zM156.885 767.787c26.88 27.221 57.472 51.2 90.88 71.467l-13.952 22.571c-29.781-18.005-57.6-38.997-82.987-62.848-4.352-4.011-8.533-8.149-12.8-12.331l18.731-18.816 0.128-0.043zM988.032 286.507l-24.235 10.069c-14.891-35.541-34.261-68.864-57.771-99.499l21.12-15.744c24.619 32.341 45.269 67.669 60.757 105.173h0.128zM884.309 749.526c25.856-28.8 47.872-60.8 65.451-95.061l23.68 11.733c-18.56 36.352-41.771 70.187-69.419 100.949l-19.84-17.621h0.128zM993.28 621.398l-24.235-10.411c13.355-35.328 22.229-72.661 25.771-111.36l26.24 2.603c-3.755 40.789-13.013 80.725-27.776 119.168zM272.469-36.224l-41.344-18.133-14.165 43.733-24.96-8.107 18.688-57.472c1.237-3.541 3.84-6.443 7.125-8.021 1.749-0.725 3.541-1.109 5.376-1.109s3.584 0.384 5.248 1.109l54.741 24.021-10.709 23.979zM435.584 14.678c-3.328 0.683-6.699 1.152-10.112 1.749l-19.84 3.371c-2.603 0.384-5.12 0-7.339-0.981l-83.243-36.395 11.563-23.637 78.72 34.261c5.333-0.896 10.667-1.749 15.829-2.517 2.901-0.725 5.931-1.109 8.917-1.621l5.504 25.771zM594.645 13.824c-27.008-4.437-54.656-6.656-82.859-6.656-11.648 0-22.4 0.64-32.939 1.621l-0.811-26.24c10.709-1.024 21.803-1.707 33.749-1.707 29.781 0 59.008 2.475 87.381 7.083l-4.437 25.856-0.085 0.043zM64.725 635.051c15.787 35.2 36.352 68.181 60.8 98.219l-20.053 17.365c-26.027-31.787-47.616-66.432-64.341-103.552l-0.427-0.896 24.021-11.136zM876.032 161.707c-26.112-27.776-55.893-52.437-88.32-73.728l14.464-21.973c34.389 22.357 65.749 48.64 93.44 78.037l-19.584 17.664zM41.387 317.824c-8.021 33.963-12.501 71.509-13.781 113.963h-26.283c1.28-45.696 6.187-85.547 14.72-121.301l25.344 7.339zM22.955 600.534c-12.672-38.827-19.968-79.061-21.76-120.021l26.24-1.28c1.792 39.381 8.917 77.483 20.779 113.579l-25.259 7.723zM202.112 34.774l-25.173 77.44c-0.853 2.56-2.389 4.651-4.48 6.272-9.899 7.765-19.157 15.616-28.16 23.808l-18.005-19.029c8.277-7.851 17.408-15.445 26.837-23.083l23.936-73.259 25.045 7.851zM112.299 175.232c-25.216 29.483-44.245 61.824-57.813 98.773l-24.448-9.771c1.749-4.565 3.541-9.216 5.376-13.739 14.080-33.963 32.896-64.384 57.259-92.8l19.627 17.536z" />
<glyph unicode="&#xe91d;" d="M511.999 960c-282.768-0.001-511.998-229.229-511.999-511.998v-0.001c0.001-282.768 229.229-511.998 511.998-511.999h0.001c282.768 0.001 511.998 229.229 511.999 511.998v0.001c-0.001 282.768-229.229 511.998-511.998 511.999h-0.001zM523.135 718.551c0.212 0.008 0.461 0.012 0.71 0.012 1.228 0 2.431-0.105 3.601-0.307l-0.125 0.018c63.598-9.762 111.38-29.198 148.064-60.881s61.269-74.421 82.321-127.903c0.921-2.278 1.455-4.919 1.455-7.686 0-11.609-9.411-21.019-21.019-21.019-8.842 0-16.409 5.46-19.514 13.192l-0.050 0.141c-19.763 50.209-41.118 85.954-70.69 111.495s-68.379 42.13-126.95 51.12c-10.294 1.472-18.121 10.229-18.121 20.815 0 11.361 9.015 20.616 20.281 21.002l0.035 0.001zM335.388 700.417c28.506 0 56.475-2.279 61.81-8.072 8.866-33.089 17.681-87.508 30.79-150.924-1.22-23.476-66.153-77.434-66.153-77.434 17.073-28.659 66.462-80.495 88.414-97.873s83.536-60.363 120.121-67.070c0 0 44.507 80.799 54.873 83.238 14.634 0 129.576 4.573 143.6-11.281s34.151-114.946 28.969-134.153c-5.183-19.207-24.828-41.032-43.121-51.398-19.512-9.147-126.82-15.236-202.43 9.459-37.805 12.347-128.683 52.31-196.289 119.12s-111.52 160.031-117.925 196.301c-12.811 72.538-31.148 153.47 32.323 184.453 7.47 3.354 36.513 5.634 65.019 5.634zM516.113 634.010c0.212 0.008 0.461 0.012 0.71 0.012 1.228 0 2.431-0.105 3.601-0.307l-0.125 0.018c42.287-6.491 74.931-19.61 100.057-41.311s41.701-50.751 55.633-86.146c1.134-2.501 1.795-5.423 1.795-8.499 0-11.606-9.409-21.015-21.015-21.015-9.145 0-16.925 5.841-19.814 13.996l-0.045 0.147c-12.644 32.122-26 54.166-44.014 69.725s-41.719 25.843-78.979 31.563c-10.294 1.472-18.121 10.229-18.121 20.815 0 11.361 9.015 20.616 20.281 21.002l0.035 0.001z" />
<glyph unicode="&#xe91e;" d="M512 938.667c-281.6 0-512-230.4-512-512s230.4-512 512-512c281.6 0 512 230.4 512 512s-230.4 512-512 512zM517.117 856.745l38.406-107.516 43.516 12.797-33.281-87.039 7.68-58.883 107.523 107.523-28.164-107.523 7.68-15.359-58.875-92.156 5.117-28.164 204.805 92.164-74.242-99.844 28.156-56.32-156.156-74.234-2.562-25.602 120.32 35.836-58.883-71.68-5.117-23.039-74.242-30.719-7.68-20.477 33.281 12.797-87.039-97.281-7.68-79.359v-74.242h-15.359v71.68l-5.117 81.922-87.047 97.281 33.281-12.797-7.68 20.477-74.234 30.719-5.125 23.039-58.875 71.68 120.32-35.836-2.563 25.602-156.164 74.234 35.844 56.32-74.242 99.844 204.805-92.164 5.117 28.164-58.883 92.156 7.68 15.359-28.156 107.523 107.516-107.523 7.68 58.883-33.273 87.039 43.516-12.797 38.398 107.516z" />
<glyph unicode="&#xe91f;" d="M512.001 938.667c0 0 0 0-0.001 0-282.77 0-512-229.23-512-512 0 0 0-0.001 0-0.001v0c0.001-282.769 229.231-511.998 512-511.998 0 0 0.001 0 0.001 0v0c282.768 0.001 511.997 229.23 511.998 511.998v0c0 0 0 0 0 0.001 0 282.769-229.229 511.999-511.998 512v0zM344.754 692.56h334.491c39.219 0 71.298-35.787 71.298-79.535 0-26.781-12.039-50.596-30.37-65.020l-177.975-158.94c-3.311-2.834-7.602 1.734-5.218 5.549l65.286 130.715c1.828 3.656-0.543 8.159-4.305 8.159h-253.208c-39.219 0-71.311 35.789-71.311 79.537s32.093 79.535 71.311 79.535zM483.702 465.149c2.77 0.28 5.241-3.316 3.303-6.416l-65.284-130.715c-1.828-3.656 0.543-8.159 4.305-8.159h253.218c39.219 0 71.298-35.802 71.298-79.537 0-43.748-32.093-79.537-71.311-79.537h-334.478c-39.219 0-71.311 35.789-71.311 79.537 0 26.781 12.042 50.596 30.373 65.020l177.972 158.94c0.621 0.531 1.275 0.802 1.914 0.867z" />
<glyph unicode="&#xe920;" d="M826.24 517.846c14.891 0 26.88-12.16 26.88-26.923 0-14.72-11.989-26.88-26.88-26.88h-74.88v-48h74.88c14.891 0 26.88-12.075 26.88-26.88 0-14.677-11.989-26.837-26.88-26.837h-101.803c-14.72 0-26.752 12.16-26.752 26.837v203.563c0 14.72 12.032 26.88 26.88 26.88h101.803c14.763 0 26.752-12.16 26.752-26.88 0-14.891-11.989-26.88-26.88-26.88h-74.88v-48h74.88zM661.76 389.163c0-11.52-7.424-21.76-18.432-25.429-2.731-0.896-5.675-1.323-8.491-1.323-9.003 0-16.683 3.84-21.76 10.667l-104.235 141.525v-125.44c0-14.677-11.904-26.837-26.923-26.837-14.763 0-26.709 12.16-26.709 26.837v203.563c0 11.52 7.381 21.76 18.347 25.387 2.56 0.981 5.803 1.408 8.277 1.408 8.32 0 16-4.437 21.12-10.837l105.045-142.080v126.123c0 14.72 12.032 26.88 26.88 26.88 14.72 0 26.88-12.16 26.88-26.88v-203.563zM416.811 389.163c0-14.677-12.032-26.837-26.923-26.837-14.72 0-26.752 12.16-26.752 26.837v203.563c0 14.72 12.032 26.88 26.88 26.88 14.763 0 26.795-12.16 26.795-26.88v-203.563zM311.595 362.326h-101.803c-14.72 0-26.88 12.16-26.88 26.837v203.563c0 14.72 12.16 26.88 26.88 26.88 14.848 0 26.88-12.16 26.88-26.88v-176.683h74.923c14.848 0 26.837-12.075 26.837-26.88 0-14.677-12.032-26.837-26.837-26.837zM1024 498.603c0 229.163-229.76 415.659-512 415.659s-512-186.496-512-415.659c0-205.269 182.187-377.259 428.16-409.941 16.683-3.499 39.381-11.008 45.141-25.173 5.12-12.843 3.371-32.683 1.621-46.080l-6.997-43.52c-1.92-12.843-10.24-50.603 44.757-27.52 55.083 22.997 295.083 173.995 402.603 297.6 73.557 80.597 108.715 163.157 108.715 254.635z" />
<glyph unicode="&#xe921;" d="M109.229 938.667c-60.512 0-109.229-48.717-109.229-109.229v-805.546c0-60.512 48.717-109.223 109.229-109.223h805.546c60.512 0 109.223 48.712 109.223 109.223v805.546c0 60.512-48.712 109.229-109.223 109.229h-805.546zM519.994 764.588c26.731 0 48.899-9.736 66.504-29.225 18.255-19.486 27.384-43.496 27.384-72.027s-9.132-52.538-27.384-72.022c-17.605-19.486-39.773-29.231-66.504-29.231-27.386 0-50.206 9.74-68.461 29.231-17.605 19.484-26.403 43.49-26.403 72.022s8.804 52.541 26.403 72.027c18.255 19.484 41.075 29.225 68.461 29.225zM520.32 486.29c6.096-0.139 12.331-0.933 18.708-2.381l0.011 0.006c28.061-6.363 48.535-22.392 61.416-48.083 13.515-25.828 16.278-58.825 8.279-98.987-15.724-78.957-55.879-141.702-120.468-188.229-11.595-8.035-23.78-10.623-36.535-7.728s-22.963 10.188-30.631 21.894c-7.802 11.022-10.558 22.314-8.252 33.889 2.167 10.883 8.281 19.813 18.328 26.784 27.336 20.121 48.064 43.881 62.183 71.267-23.827 7.539-41.767 21.209-53.821 41.021-11.92 20.489-15.293 43.669-10.153 69.536 5.558 27.906 18.846 49.43 39.858 64.586 15.763 11.367 32.786 16.844 51.076 16.426z" />
<glyph unicode="&#xe922;" d="M114.283 938.667c-63.314 0-114.283-50.969-114.283-114.283v-795.433c0-63.314 50.969-114.283 114.283-114.283h795.433c63.314 0 114.283 50.969 114.283 114.283v795.433c0 63.314-50.969 114.283-114.283 114.283zM285.767 779.309h205.458c91.263 0 129.928-4.945 185.675-34.617 60.243-32.819 97.55-97.102 97.55-177.575 0-74.179-30.114-138.47-88.558-177.133-53.499-35.516-114.194-40.458-195.567-40.458h-204.558zM516.833 688.059c-3.239 0.034-6.531 0.034-9.875-0.009l-117.333-0.9v-247.717h124.525c87.217 0 153.308 35.071 153.308 126.783 0 82.749-50.21 120.771-150.625 121.842zM285.767 259.609h103.858v-188.817h-103.858z" />
<glyph unicode="&#xe923;" d="M109.229 938.667c-60.512 0-109.229-48.717-109.229-109.229v-805.546c0-60.512 48.717-109.223 109.229-109.223h805.546c60.512 0 109.223 48.712 109.223 109.223v805.546c0 60.512-48.712 109.229-109.223 109.229h-805.546zM293.258 763.535h56.588v-76.746c21.22-2.829 40.317-8.607 57.293-17.33s31.36-20.161 43.149-34.308c12.025-13.911 21.217-30.412 27.583-49.51 6.602-18.862 9.905-40.082 9.905-63.66h-98.32c0 28.529-6.485 50.1-19.452 64.718-12.968 14.854-30.533 22.28-52.696 22.28-12.025 0-22.515-1.649-31.474-4.95-8.724-3.065-15.916-7.544-21.575-13.439-5.659-5.659-9.904-12.377-12.733-20.158-2.594-7.781-3.892-16.271-3.892-25.466s1.298-17.446 3.892-24.755c2.829-7.073 7.425-13.675 13.791-19.805 6.602-6.13 15.209-12.024 25.819-17.683 10.61-5.423 23.813-10.966 39.61-16.625 23.813-8.96 45.39-18.269 64.724-27.936 19.334-9.431 35.835-20.517 49.51-33.249 13.911-12.496 24.524-27.115 31.833-43.855 7.545-16.504 11.316-36.070 11.316-58.704 0-20.748-3.421-39.495-10.258-56.235-6.838-16.504-16.62-30.766-29.352-42.791s-28.058-21.696-45.977-29.005c-17.919-7.073-37.964-11.669-60.127-13.791v-69.315h-56.229v69.315c-20.041 1.886-39.495 6.248-58.357 13.086-18.862 7.073-35.603 17.213-50.221 30.416-14.382 13.204-25.931 29.827-34.655 49.868-8.724 20.277-13.086 44.561-13.086 72.854h98.673c0-16.976 2.474-31.243 7.425-42.796 4.951-11.317 11.319-20.393 19.1-27.23 8.016-6.602 17.092-11.315 27.23-14.144s20.512-4.244 31.122-4.244c25.228 0 44.326 5.894 57.293 17.683s19.452 26.992 19.452 45.619c0 9.903-1.532 18.627-4.597 26.172-2.829 7.781-7.542 14.856-14.144 21.222-6.366 6.366-14.856 12.143-25.466 17.33-10.374 5.423-22.987 10.726-37.841 15.914-23.813 8.488-45.507 17.446-65.076 26.877s-36.31 20.395-50.221 32.891c-13.675 12.496-24.282 26.998-31.827 43.502-7.545 16.74-11.316 36.545-11.316 59.415 0 20.041 3.415 38.314 10.253 54.818 6.838 16.74 16.509 31.241 29.005 43.502s27.583 22.16 45.266 29.705c17.683 7.545 37.371 12.38 59.063 14.502v76.040zM571.594 166.547h322.544v-76.746h-322.544v76.746z" />
<glyph unicode="&#xe924;" horiz-adv-x="1082" d="M591.332 938.667c-90.332 0-163.56-73.229-163.56-163.56 0 0 0 0 0-0.001v0c0.070-13.428 1.748-26.431 4.85-38.871l-0.238 1.126h125.481c25.392-0.096 45.952-20.656 46.049-46.048v-79.234c84.737 6.734 150.952 77.144 150.978 163.024v0.002c0 0 0 0 0 0 0 90.332-73.228 163.56-163.56 163.56 0 0 0 0 0 0v0zM943.615 820.539c-62.537 0-113.234-50.697-113.234-113.234 0 0 0-0.001 0-0.001v0c0.001-62.537 50.697-113.233 113.234-113.233v0c62.537 0 113.234 50.697 113.234 113.234v0c0 62.537-50.697 113.234-113.234 113.234v0zM433.549 732.172c0.349-1.523 0.451-1.91 0.554-2.296l-0.259 1.142c-0.103 0.383-0.195 0.77-0.295 1.154zM445.484 701.1c0.5-1.032 0.572-1.168 0.643-1.303l-0.429 0.89c-0.071 0.138-0.144 0.275-0.214 0.413zM46.124 694.723c-25.473 0-46.124-20.65-46.124-46.124v-461.34c0-25.473 20.65-46.124 46.124-46.124h461.34c25.473 0 46.124 20.65 46.124 46.124v461.34c0 25.473-20.65 46.124-46.124 46.124h-461.34zM557.738 615.088c-0.543 0.086 0.017-0.041 0.579-0.165l1.085-0.201c-0.556 0.117-1.11 0.242-1.664 0.366zM603.455 612.024c-0.696-0.041-1.385-0.082-2.071-0.121 1.133 0.057 1.851 0.1 2.568 0.148l-0.498-0.027zM155.407 567.85h242.773v-48.716h-92.223v-251.128h-58.755v251.128h-91.795v48.716zM602.36 543.744v-406.887c-0.125-18.659-11.432-35.421-28.686-42.525-5.493-2.324-11.397-3.522-17.362-3.523h-233.326c41.443-101.046 139.606-173.299 255.765-176.142 156.566 3.832 280.436 133.761 276.794 290.331v290.357c0.604 26.091-20.034 47.743-46.125 48.389h-207.061zM875.863 543.744c22.27-4.283 38.848-24.124 38.305-47.545v-290.357c1.163-49.999-10.679-97.28-32.435-138.607 7.763-1.047 15.685-1.59 23.734-1.589h0.831c97.044 0 175.713 78.669 175.713 175.713v254.575c0 26.405-21.405 47.809-47.809 47.809h-158.339z" />
<glyph unicode="&#xe925;" d="M173.367 743.012h658.125c1.009 0 1.827-0.818 1.827-1.827v-493.486c0-1.009-0.818-1.827-1.827-1.827h-658.125c-1.009 0-1.827 0.818-1.827 1.827v493.486c0 1.009 0.818 1.827 1.827 1.827z" />
<glyph unicode="&#xe926;" d="M462.918 877.209c-24.060-3.657-56.379-3.059-82.731-7.867-72.274-9.367-144.726-33.264-201.754-79.896-46.352 32.943-117.48 27.755-151.72-20.137-37.122-42.752-32.104-117.308 19.425-146.713 51.353-14.127 14.442-69.849 8.578-108.213s-8.298-70.449-8.047-92.251c4.536-247.996 4.682-410.49 191.463-432.96 145.010-17.445 454.19-18.415 561.213 39.972s97.793 226.356 116.489 282.302c33.769 129.277 28.545 155.785 32.998 280.89 38.727 11.274 70 46.935 71.872 86.64 0.511-1.575 1.261-0.526 0.229 6.877-0.090-0.289-0.113-0.568-0.181-0.857-0.213 7.487-1.47 15.081-3.957 22.646-16.55 63.253-92.183 104.63-153.119 75.468-28.513-25.133-49.406 20.609-76.65 27.762-89.331 47.127-192.095 62.827-292.002 66.141-10.694 0.791-21.875-1.853-32.105 0.181v0.012zM337.62 736.854v-0.024c73.663-0.964 146.435-64.925 137.567-142.007-6.821-79.134-97.646-125.226-169.89-104.641-58.14 11.146-109.785 64.393-102.627 126.118 0.301 64.423 56.565 120.619 121.098 120.29 2.231 0.070 4.516 0.086 6.72 0.133v0.012c2.375 0.111 4.754 0.14 7.131 0.121zM672.116 721.278c4.168 0.061 8.38-0.107 12.584-0.507 75.545 6.409 152.176-62.876 138.412-141.115-5.36-65.702-71.391-114.356-135.601-107.839-70.105-1.126-142.918 58.511-134.43 132.729-0.213 64.599 56.514 115.837 119.035 116.731zM1.255 703.506c-2.058-4.317 1.498-11.069 0 0zM411.423 645.122c-0.885 0-1.783-0.002-2.703-0.048-48.261 1.381-55.091-78.642-8.687-88.052 50.978-9.193 67.092 87.577 11.39 88.1zM756.367 633.962c-0.706 0.016-1.411 0.011-2.099-0.012-42.669-1.314-52.536-71.22-12.174-86.218 51.368-20.798 78.578 63.54 30.682 83.298l-6.781 2.099-7.492 0.724c-0.722 0.051-1.429 0.092-2.136 0.109zM441.864 465.846c32.43-26.69 89.041-33.94 120.109-1.701 35.783-6.823 58.496-62.614 21.006-82.357-44.227-3.013-89.745 31.503-133.055 2.896-51.39-33.433-83.506 49.365-29.741 68.373 6.923 4.755 14.347 8.723 21.681 12.789zM496.121 389.207c0.437-27.096 8.762-56.429-3.68-81.983-43.122-35.769-52.664 31.579-43.314 61.436 2.837 15.977 33.49 17.561 46.994 20.547zM510.165 387.917h0.024c23.148-6.433 62.69-13.139 54.957-37.957 5.552-32.825-31.381-74.356-54.933-33.252-0.055 23.892-3.478 48.483-0.048 71.209z" />
<glyph unicode="&#xe927;" d="M56.14 871.274c-32.751 0-55.369-23.798-55.369-48.913l0.903-788.123-1.674-9.512 161.445 48.794h807.186c32.751-0.54 55.369 23.798 55.369 48.913v699.927c0 25.090-22.59 48.913-55.29 48.913z" />
<glyph unicode="&#xe928;" d="M137.374 721.001v-126.135l192.863-101.878-1.222-0.531-191.64-101.413v-125.405l20.631 11.265 291.101 158.416v115.999zM532.996 339.805v-115.029h331.033v115.029z" />
<glyph unicode="&#xe929;" d="M470.394-84.018c-95.397 7.956-186.012 42.111-263.443 99.298-32.786 24.214-81.982 73.41-106.196 106.196-123.188 166.798-134.352 390.724-28.321 568.046 28.248 47.24 73.096 99.21 115.361 133.678 103.768 84.627 238.984 125.778 372.152 113.26 132.638-12.468 258.317-77.974 342.723-178.631 132.11-157.548 158.947-375.11 68.703-556.961-69.203-139.453-191.957-237.364-342.328-273.046-45.324-10.755-111.997-15.731-158.651-11.84zM415.329-18.171c4.619 4.619 4.703 7.838 4.703 179.891 0 205.49 3.397 184.594-30.009 184.594h-20.603l-73.578 74.073 0.288 13.226c0.386 17.719-7.627 30.384-22.918 36.224-17.585 6.716-32.828 1.972-44.683-13.907-6.798-9.106-6.798-31.411 0-40.516 9.452-12.66 16.628-16.19 32.908-16.19h15.061l23.561-23.471c12.959-12.909 23.561-24.814 23.561-26.455 0-2.274-8.174-2.983-34.388-2.983h-34.388l-44.975 43.926c-24.736 24.159-46.234 45.438-47.773 47.287-1.765 2.12-2.309 7.489-1.474 14.538 2.518 21.261-7.772 37.090-27.58 42.423-26.092 7.026-51.487-18.664-44.472-44.989 4.718-17.706 18.837-27.848 39.056-28.053l11.402-0.116 103.467-100.778 70.941-0.053c39.018-0.027 72.615-0.695 74.661-1.48 3.295-1.264 3.72-10.932 3.72-84.655 0-45.775-0.81-83.227-1.8-83.227s-14.2 12.434-29.355 27.63l-27.554 27.63 1.421 11.979c3.65 30.773-26.106 52.093-53.232 38.142-11.381-5.853-21.164-20.869-21.164-32.485 0-3.332 2.381-10.78 5.291-16.55 6.61-13.107 21.363-21.456 36.565-20.691l10.111 0.508 79.718-79.615v-60.578c0-57.442 0.243-60.821 4.703-65.28 2.587-2.587 6.819-4.703 9.406-4.703s6.819 2.116 9.406 4.703zM292.042 218.324c-2.032 2.032-3.695 4.602-3.695 5.711 0 2.146 6.601 9.406 8.553 9.406 3.979 0 10.259-5.521 10.259-9.018 0-8.951-8.739-12.477-15.117-6.098zM253.544 429.087c-5.416 5.416-1.639 15.99 5.711 15.99 3.301 0 10.279-6.386 10.279-9.406s-6.979-9.406-10.279-9.406c-1.589 0-4.159 1.27-5.711 2.822zM116.715 454.43c-1.979 3.698-1.504 5.634 2.323 9.46s5.762 4.302 9.46 2.323c5.214-2.791 6.094-9.343 1.827-13.61s-10.819-3.387-13.61 1.827zM610.504-6.414c4.545 4.545 4.703 7.838 4.703 98.094v93.391l74.143 74.143 14.601-0.205c25.254-0.356 40.589 13.528 40.589 36.747 0 22.787-16.041 37.518-39.016 35.828-21.672-1.594-33.882-15.819-33.882-39.474v-12.342l-25.143-25.515c-13.829-14.033-26.527-25.515-28.218-25.515-2.403 0-3.075 8.14-3.075 37.236v37.237l79.582 78.376h168.799l6.907-7.264c10.585-11.134 18.924-14.586 32.162-13.313 25.896 2.488 40.497 25.906 31.249 50.121-8.118 21.256-34.173 29.835-53.789 17.712-4.79-2.96-10.297-8.455-12.239-12.21l-3.531-6.828h-46.97c-25.833 0-46.97 0.767-46.97 1.705s7.114 8.874 15.81 17.636c15.618 15.738 15.963 15.932 28.451 15.932 23.391 0 37.846 11.927 39.86 32.891 3.828 39.839-48.327 56.036-68.61 21.306-3.4-5.822-4.629-11.82-4.366-21.315l0.366-13.213-55.014-54.577-42.737-1.539-46.502-44.679c-25.576-24.573-47.441-47.129-48.589-50.123-3.272-8.531-2.685-310.010 0.616-316.281 5.217-9.912 13.318-11.454 20.812-3.961zM700.65 291.215c-2.196 5.722 2.299 11.595 8.874 11.595 4.68 0 5.623-1.183 5.623-7.055 0-5.951-1.013-7.171-6.48-7.8-4.412-0.507-6.97 0.532-8.017 3.259zM892.78 392.056c-5.603 6.751 2.127 17.105 10.399 13.931 8.556-3.283 5.769-17.345-3.438-17.345-2.27 0-5.402 1.536-6.961 3.414zM810.666 477.472c-3.11 5.812 1.006 12.285 7.813 12.285 6.089 0 9.223-5.349 7.084-12.089-1.791-5.643-11.911-5.776-14.898-0.196zM510.432 69.358c3.219 4.595 3.661 23.028 3.661 152.675v147.449l68.191 1.523 255.159 255.14h10.218c20.946 0 35.506 12.792 37.437 32.891 2.168 22.563-13.483 40.014-35.872 39.998-25.038-0.018-42.584-22.041-36.263-45.513l2.513-9.333-246.106-246.139h-54.884l-1.57 56.378-58.625 58.753 16.044 16.553h54.646c32.746 0 57.269 0.997 61.192 2.489 3.6 1.369 32.865 29.411 65.033 62.315l58.487 59.827h10.993c14.97 0 26.034 6.429 32.798 19.060 6.543 12.219 6.034 27.209-1.259 37.057-16.761 22.633-45.778 22.438-62.716-0.423-5.106-6.891-6.694-23.855-3.139-33.538 1.522-4.145-6.625-13.507-53.712-61.727l-55.506-56.842h-37.409c-20.575 0-37.409 0.824-37.409 1.832s6.614 8.355 14.697 16.329c14.633 14.434 14.754 14.496 27.779 14.156 22.906-0.597 37.538 12.105 39.183 34.017 1.801 23.988-14.745 40.514-38.841 38.794-21.886-1.562-34.611-16.199-34.022-39.136l0.336-13.082-77.389-77.506-45.771 45.771 139.515 139.515 13.711-0.459c17.147-0.573 28.16 4.884 35.424 17.554 14.486 25.267-2.448 55.016-31.317 55.016-13.298 0-23.907-5.614-32.482-17.188-3.722-5.024-4.85-9.905-4.707-20.379l0.187-13.772-69.85-69.821c-60.719-60.693-70.43-69.504-74.285-67.401-2.439 1.331-18.583 16.74-35.874 34.243-29.54 29.9-31.319 32.22-29.447 38.398 3.697 12.2 2.415 28.142-2.834 35.227-16.938 22.86-45.955 23.056-62.716 0.423-16.269-21.968 1.935-56.117 29.915-56.117 9.188 0 11.071-1.699 96.914-87.429 48.149-48.086 87.008-88.297 86.352-89.358s-19.93-1.928-42.832-1.928h-41.64l-88.541 85.83 2.925 10.673c5.502 20.074-1.856 36.619-19.939 44.831-12.411 5.637-18.781 5.553-31.099-0.411-18.208-8.814-25.864-29.208-17.805-47.427 6.006-13.577 16.615-21.037 31.971-22.48l12.045-1.132 96.866-95.752h63.328c53.511 0 64.139-0.568 68.555-3.661l5.226-3.661v-183.937c0-202.649-0.599-194.39 14.109-194.39 4.349 0 8.103 1.878 10.448 5.226zM235.605 578.106c-2.032 2.032-3.695 4.602-3.695 5.711 0 2.146 6.601 9.406 8.553 9.406 3.979 0 10.259-5.521 10.259-9.018 0-8.951-8.739-12.477-15.117-6.098zM542.31 621.441c-3.826 3.826-4.302 5.762-2.323 9.46 2.791 5.214 9.343 6.094 13.61 1.827s3.387-10.819-1.827-13.61c-3.698-1.979-5.634-1.504-9.46 2.323zM841.235 658.539c-3.13 5.849 1.022 12.285 7.926 12.285 6.945 0 9.132-3.231 7.253-10.715-1.748-6.963-11.74-7.996-15.179-1.569zM257.613 686.305c-4.125 4.97-0.010 11.56 7.218 11.56s11.343-6.591 7.218-11.56c-1.7-2.048-4.948-3.724-7.218-3.724s-5.518 1.676-7.218 3.724zM713.808 686.305c-4.125 4.97-0.009 11.56 7.218 11.56s11.343-6.591 7.218-11.56c-1.7-2.048-4.948-3.724-7.218-3.724s-5.518 1.676-7.218 3.724zM537.89 750.248c-3.127 5.843 1.019 12.285 7.907 12.285 3.582 0 6.155-1.737 7.132-4.816 3.060-9.64-10.32-16.285-15.039-7.469z" />
<glyph unicode="&#xe92a;" d="M495.997 932.072c-141.739-4.445-268.129-66.64-357.064-163.715l-0.343-0.377c-81.965-89.463-132.189-209.177-132.189-340.623 0-147.429 63.183-280.103 163.948-372.417l0.377-0.341c89.463-81.965 209.177-132.191 340.625-132.191 147.429 0 280.103 63.183 372.416 163.947l0.341 0.377c81.965 89.463 132.191 209.179 132.191 340.623 0 147.429-63.183 280.103-163.948 372.419l-0.377 0.341c-89.463 81.967-209.18 132.193-340.627 132.193-5.399 0-10.776-0.085-16.133-0.253l0.783 0.019zM614.591 737.030c32.229 0 59.316-4.581 81.259-13.744 21.955-9.173 39.041-21.263 51.265-36.267s19.864-32.505 22.915-52.508c3.061-20.004 2.091-40.841-2.911-62.512-6.112-26.115-17.644-52.375-34.597-78.775-16.943-26.388-38.191-50.283-63.751-71.681-25.561-21.387-54.876-38.747-87.944-52.083-33.055-13.336-68.199-20.003-105.429-20.003h-4.167l-105.853-237.545h-120.023l235.88 530.096 126.688 16.671-123.355-278.385c21.671 1.667 42.923 9.028 63.755 22.080 20.841 13.064 40.020 29.456 57.528 49.176 17.499 19.732 32.636 41.679 45.415 65.844 12.78 24.176 21.948 47.935 27.505 71.272 3.333 14.447 4.864 28.339 4.591 41.673-0.284 13.336-3.757 25.005-10.425 35.007s-16.812 18.061-30.432 24.173c-13.608 6.112-32.081 9.165-55.419 9.165-27.228 0-54.039-4.444-80.439-13.336-26.388-8.891-50.84-21.809-73.349-38.764-22.499-16.943-42.081-38.057-58.751-63.347-16.669-25.277-28.616-54.031-35.841-86.259-2.779-10.557-4.444-19.028-5-25.412-0.556-6.396-0.693-11.675-0.409-15.837 0.272-4.173 0.823-7.368 1.651-9.591 0.839-2.223 1.533-4.445 2.089-6.668-28.339 0-49.039 5.696-62.103 17.093-13.052 11.385-16.243 31.249-9.575 59.588 6.668 29.449 21.809 57.508 45.432 84.179 23.609 26.672 51.665 50.151 84.165 70.439 32.511 20.276 68.075 36.385 106.688 48.325 38.625 11.953 76.269 17.931 112.944 17.931z" />
<glyph unicode="&#xe92b;" d="M512.021 938.667c-0.002 0-0.005 0-0.008 0-282.777 0-512.013-229.236-512.013-512.013 0-0.003 0-0.006 0-0.008v0c0.020-282.762 229.248-511.979 512.013-511.979 0.003 0 0.006 0 0.008 0v0c0.002 0 0.005 0 0.008 0 282.765 0 511.993 229.216 512.013 511.977v0.002c0 0.002 0 0.005 0 0.008 0 282.777-229.236 512.013-512.013 512.013-0.003 0-0.006 0-0.008 0v0zM515.875 776.257c172.986 0 324.563-149.864 344.259-323.278 1.285-11.133 1.712-21.837 1.712-31.685 0-89.062-50.526-177.268-145.154-177.268-41.962 0-75.788 17.555-99.767 48.385-29.116-25.691-68.509-45.387-115.609-45.387-103.62 0-182.406 82.639-182.406 186.26 0 92.916 81.783 178.98 173.842 178.98 38.108 0 72.363-9.848 101.051-28.26 5.994 17.127 21.837 29.117 40.249 29.117 23.55 0 42.818-19.268 42.818-42.818v-209.81c0-14.986 18.84-29.545 39.821-29.545 39.821 0 58.661 44.959 58.661 89.919 0 146.438-126.742 266.33-259.479 266.33-155.431 0-268.471-124.601-268.471-258.622 0-142.157 105.333-264.189 255.197-264.189 30.401 0 61.23 5.995 93.772 17.127 10.276 3.425 19.268 5.994 27.832 5.994 22.694 0 34.255-17.127 34.255-39.821 0-22.266-11.989-39.393-32.542-47.1-41.534-15.843-82.639-23.55-123.317-23.55-197.821 0-340.405 164.85-340.405 350.254 0 174.271 146.010 348.969 353.679 348.969zM497.891 525.77c-50.954 0-93.344-44.103-93.344-95.913 0-51.382 37.68-96.769 93.344-96.769 53.951 0 93.772 41.962 94.628 95.485-0.427 53.951-41.962 97.197-94.628 97.197z" />
<glyph unicode="&#xe92c;" d="M142.769 871.774c-73.5 0-133.644-60.149-133.644-133.65v-398.151c0-73.5 60.143-133.644 133.644-133.644h56.045v-215.2l195.357 215.2 489.426 0.265c68.005 8.811 129.663 59.708 129.663 133.379v398.151c0 73.501-60.144 133.644-133.644 133.644l-736.847 0.006zM263.737 675.43c16.811-0.371 31.771-4.079 44.873-11.124 13.103-6.922 23.111-16.626 30.033-29.11 6.922-12.361 10.137-26.517 9.643-42.463l-45.608 0.188c0.865 14.091-2.291 25.033-9.46 32.82-7.046 7.787-17.735 11.865-32.073 12.236-14.462 0.247-26.7-3.155-36.712-10.201-9.889-7.046-15.697-16.561-17.427-28.551-2.472-15.698 8.035-28.059 31.521-37.083l13.905-5.004c28.306-10.136 48.083-22.069 59.331-35.789 11.248-13.597 16.194-29.724 14.834-48.389-1.236-15.204-6.246-28.492-15.022-39.864-8.776-11.248-20.95-19.966-36.524-26.147-15.451-6.18-32.511-9.143-51.176-8.896-17.676 0.124-33.745 3.831-48.207 11.124-14.339 7.293-25.339 17.366-33.002 30.221-7.664 12.979-11.184 27.687-10.566 44.127l45.796-0.182c-0.989-15.327 2.778-27.131 11.307-35.413s20.767-12.547 36.712-12.794c14.833-0.247 27.194 2.903 37.083 9.454 10.012 6.551 16.008 15.885 17.986 27.999 2.719 17.8-6.984 31.023-29.11 39.676l-15.017 5.562c-27.936 9.765-47.777 21.322-59.519 34.672s-17.058 28.867-15.946 46.543c0.989 15.327 6.181 28.797 15.575 40.417 9.518 11.743 22.002 20.766 37.453 27.070s31.89 9.273 49.318 8.902zM811.818 675.43c16.811-0.371 31.771-4.079 44.873-11.124 13.103-6.922 23.111-16.626 30.033-29.11 6.922-12.361 10.137-26.517 9.643-42.463l-45.608 0.188c0.865 14.091-2.291 25.033-9.46 32.82-7.046 7.787-17.735 11.865-32.073 12.236-14.462 0.247-26.7-3.155-36.712-10.201-9.889-7.046-15.697-16.561-17.427-28.551-2.472-15.698 8.029-28.059 31.515-37.083l13.911-5.004c28.306-10.136 48.083-22.069 59.331-35.789 11.248-13.597 16.194-29.724 14.834-48.389-1.236-15.204-6.246-28.492-15.022-39.864-8.776-11.248-20.95-19.966-36.524-26.147-15.451-6.18-32.511-9.143-51.176-8.896-17.676 0.124-33.745 3.831-48.207 11.124-14.339 7.293-25.339 17.366-33.002 30.221-7.664 12.979-11.184 27.687-10.566 44.127l45.796-0.182c-0.989-15.327 2.778-27.131 11.307-35.413s20.767-12.547 36.712-12.794c14.833-0.247 27.194 2.903 37.083 9.454 10.012 6.551 16.008 15.885 17.986 27.999 2.719 17.8-6.984 31.023-29.11 39.676l-15.017 5.562c-27.936 9.765-47.777 21.322-59.519 34.672s-17.058 28.867-15.946 46.543c0.989 15.327 6.181 28.797 15.575 40.417 9.518 11.743 22.002 20.766 37.453 27.070s31.889 9.273 49.318 8.902zM402.614 671.72h58.22l39.493-206.551 111.060 206.551h60.072l-46.72-269.963h-45.614l15.763 91.411 23.912 112.548-111.243-203.958h-33.008l-41.346 210.073-16.875-123.484-15.017-86.589h-45.608l46.908 269.963z" />
<glyph unicode="&#xe92d;" d="M512 938.667c-282.768 0-512-229.232-512-512s229.232-512 512-512c282.768 0 512 229.232 512 512s-229.232 512-512 512zM308 681.599h13.336c66.932 0 66.932 0 66.932-66.932v-367.468c0-66.932 0-66.932-66.932-66.932h-13.336c-66.932 0-66.932 0-66.932 66.932v367.468c0 66.932 0 66.932 66.932 66.932zM484.164 681.599h150.148c128.712 0 210.512-129.092 210.512-252.1s-82.512-249.232-210.512-249.232h-150.148c-22.796 0-34.032 11.236-34.032 34.032v433.272c0 22.792 11.236 34.028 34.032 34.028z" />
<glyph unicode="&#xe92e;" d="M862.805 938.667c59.989 0 108.373-48.512 111.232-105.6v-918.4l-114.219 96.981-62.72 57.088-68.437 59.648 28.587-94.080h-598.955c-59.819 0-108.373 45.44-108.373 105.643v692.907c0 57.088 48.64 105.685 108.587 105.685l704.299 0.128zM601.771 696.192h-1.28l-8.619-8.533c88.448-25.6 131.243-65.579 131.243-65.579-57.003 28.501-108.373 42.752-159.744 48.512-37.12 5.76-74.24 2.731-105.6 0h-8.533c-20.053 0-62.72-8.533-119.893-31.36-19.925-8.661-31.36-14.336-31.36-14.336s42.752 42.752 136.96 65.579l-5.76 5.76s-71.339 2.731-148.352-54.187c0 0-77.013-134.144-77.013-299.52 0 0 42.667-74.24 159.701-77.056 0 0 17.067 22.741 34.347 42.752-65.707 19.968-91.307 59.904-91.307 59.904s5.717-2.816 14.293-8.533h2.56c1.28 0 1.877-0.64 2.56-1.28v-0.256c0.683-0.683 1.28-1.28 2.56-1.28 14.080-5.803 28.16-11.52 39.68-17.067 19.883-8.619 45.44-17.195 76.8-22.869 39.68-5.76 85.163-8.533 136.96 0 25.6 5.76 51.2 11.392 76.8 22.827 16.64 8.533 37.12 17.067 59.605 31.445 0 0-25.6-39.936-94.080-59.904 14.080-19.883 33.92-42.667 33.92-42.667 117.077 2.56 162.56 76.8 165.12 73.643 0 165.12-77.44 299.52-77.44 299.52-69.76 51.797-135.040 53.76-146.56 53.76l2.389 0.853zM608.939 507.904c29.995 0 54.187-25.6 54.187-56.96 0-31.573-24.32-57.173-54.187-57.173s-54.187 25.6-54.187 56.917c0.085 31.573 24.448 57.088 54.187 57.088zM415.104 507.904c29.867 0 54.016-25.6 54.016-56.96 0-31.573-24.32-57.173-54.187-57.173s-54.187 25.6-54.187 56.917c0 31.573 24.32 57.088 54.187 57.088z" />
<glyph unicode="&#xe92f;" d="M803.157 338.987l-66.347-22.229 23.040-68.693c9.301-27.733-5.76-57.813-33.536-67.157-6.4-1.92-12.16-2.859-18.56-2.688-21.803 0.64-41.643 14.421-49.28 36.224l-23.040 68.565-136.96-45.781 22.997-68.608c9.003-27.819-5.76-57.941-33.877-67.2-6.4-2.048-12.16-2.859-18.56-2.731-21.76 0.64-41.643 14.507-49.323 36.267l-22.997 69.077-66.603-22.357c-6.4-1.92-12.16-2.603-18.56-2.603-21.803 0.683-41.643 14.72-49.28 36.48-9.6 28.16 5.76 58.197 33.28 67.2l66.56 22.4-42.112 131.755-66.176-22.4c-6.016-2.048-12.16-2.816-18.261-2.731-21.12 0.683-41.6 14.421-48.683 36.181-8.917 27.733 5.76 57.771 33.963 67.157l66.56 22.187-23.040 68.48c-8.96 27.904 5.803 57.984 33.963 67.2 28.117 9.387 58.155-5.803 67.157-33.408l22.997-68.608 136.32 45.824-23.040 68.48c-8.917 27.52 5.76 57.6 33.664 67.157 27.819 9.003 57.984-5.76 67.2-33.749l23.040-69.163 66.347 21.76c27.776 9.344 57.856-5.76 67.2-33.237 9.301-27.904-5.76-57.984-33.451-67.2l-66.432-22.357 44.16-131.669 66.176 22.016c27.819 9.003 57.941-5.76 67.2-33.92 9.387-28.16-5.76-58.24-33.237-67.157zM981.12 567.51c-105.6 351.701-258.091 433.92-609.963 328.277-351.701-105.557-433.92-257.963-328.277-609.963 105.6-351.787 257.963-433.92 609.963-328.277 351.787 105.6 433.92 257.963 328.277 609.963zM421.504 469.547l44.16-131.627 136.747 45.824-44.16 131.157-136.747-46.080z" />
<glyph unicode="&#xe930;" glyph-name="rocketchat" d="M977.361 602.351c-27.77 43.124-66.694 81.3-115.625 113.501-94.54 62.115-218.758 96.335-349.775 96.335-43.776 0-86.9-3.808-128.765-11.343-25.972 25.007-56.34 47.5-88.503 65.274-119.328 59.492-224.486 37.341-277.619 18.234-17.456-6.281-22.842-28.358-9.931-41.679 37.471-38.671 99.466-115.098 84.226-184.599-59.245-60.48-91.369-133.408-91.369-209.341 0-77.379 32.124-150.307 91.369-210.787 15.241-69.501-46.755-145.967-84.226-184.637-12.873-13.283-7.525-35.36 9.931-41.641 53.134-19.107 158.291-41.297 277.657 18.193 32.163 17.775 62.531 40.271 88.503 65.277 41.865-7.537 84.992-11.343 128.765-11.343 131.055 0 255.276 34.179 349.775 96.297 48.931 32.201 87.855 70.339 115.625 113.501 30.941 48.032 46.601 99.759 46.601 153.655-0.038 55.343-15.7 107.028-46.639 155.101zM506.615 173.431c-56.649 0-110.659 7.308-159.895 20.515l-35.983-34.598c-19.558-18.801-42.476-35.817-66.388-49.213-31.665-15.491-62.95-23.98-93.888-26.528 1.757 3.156 3.36 6.353 5.079 9.553 36.058 66.225 45.798 125.754 29.184 178.545-58.979 46.321-94.348 105.623-94.348 170.214 0 148.25 186.365 268.451 416.239 268.451 229.871 0 416.276-120.201 416.276-268.451 0-148.288-186.365-268.489-416.276-268.489zM307.491 558.929c-33.882 0-61.347-27.252-61.347-60.861s27.465-60.861 61.347-60.861c33.879 0 61.344 27.252 61.344 60.861s-27.465 60.861-61.344 60.861zM504.934 558.929c-33.879 0-61.344-27.252-61.344-60.861s27.465-60.861 61.344-60.861c33.882 0 61.347 27.252 61.347 60.861s-27.465 60.861-61.347 60.861zM702.415 558.929c-33.882 0-61.347-27.252-61.347-60.861s27.465-60.861 61.347-60.861c33.879 0 61.344 27.252 61.344 60.861s-27.465 60.861-61.344 60.861z" />
<glyph unicode="&#xe931;" d="M896 938.667h-768c-70.699 0-128-57.301-128-128v-768c0-70.656 57.301-128 128-128h768c70.656 0 128 57.344 128 128v768c0 70.699-57.344 128-128 128zM445.44 162.987c0-33.92-27.52-61.44-61.44-61.44h-189.44c-33.92 0-61.44 27.563-61.44 61.44v581.12c0 33.92 27.52 61.44 61.44 61.44h189.44c33.92 0 61.44-27.52 61.44-61.44v-581.12zM890.88 418.987c0-33.877-27.52-61.44-61.44-61.44h-189.44c-33.92 0-61.44 27.563-61.44 61.44v325.12c0 33.92 27.563 61.44 61.44 61.44h189.44c33.92 0 61.44-27.52 61.44-61.44v-325.12z" />
<glyph unicode="&#xe932;" glyph-name="group" d="M56.396 786.262c-28.625 0-51.828-23.207-51.831-51.831v-439.072l126.261 310.141c8.136 19.99 24.97 32.656 43.407 32.656h646.498v21.728c0 28.625-23.206 51.828-51.831 51.831h-369.431l-50.13 56.963c-9.843 11.18-24.020 17.586-38.916 17.584zM820.731 390.123l-115.611-274.87c-8.248-19.613-24.914-31.967-43.123-31.968h-622.301c5.246-1.788 10.849-2.804 16.7-2.804h712.504c28.625 0 51.828 23.206 51.831 51.831zM247.475 572.639c-19.758 0-37.798-11.232-46.517-28.963l-191.079-388.484c-16.937-34.445 8.133-74.71 46.517-74.71h713.789c19.514 0 37.374 10.959 46.213 28.356l197.416 388.484c17.52 34.481-7.527 75.31-46.203 75.318z" />
</font>
</defs>
</svg>
